<svg xmlns="http://www.w3.org/2000/svg" viewBox="0 0 24 24"><defs><style>.cls-1{fill:none;stroke:#2188d9;stroke-linecap:round;stroke-linejoin:round;stroke-width:2px;}</style></defs><title>ZenduKML Export</title><g id="Zendu_KML_Export" data-name="Zendu KML Export"><circle class="cls-1" cx="9.5" cy="10.5" r="8.5"/><path class="cls-1" d="M9.5,2V19a10,10,0,0,1-4.25-8.5A10,10,0,0,1,9.5,2Z"/><path class="cls-1" d="M9.5,19a10,10,0,0,0,4.25-8.5A10,10,0,0,0,9.5,2"/><line class="cls-1" x1="1" y1="10.5" x2="18" y2="10.5"/><path class="cls-1" d="M3.16,16.15A12.53,12.53,0,0,1,9.5,14a11.5,11.5,0,0,1,6.34,2.19"/><path class="cls-1" d="M3.16,5.46A12.53,12.53,0,0,0,9.5,7.65a11.5,11.5,0,0,0,6.34-2.19"/><polyline class="cls-1" points="1 22 17 22 23 22"/><line class="cls-1" x1="21" y1="19" x2="21" y2="13"/><line class="cls-1" x1="19" y1="15" x2="21" y2="13"/><line class="cls-1" x1="21" y1="13" x2="23" y2="15"/><line class="cls-1" x1="3" y1="20" x2="1" y2="22"/><line class="cls-1" x1="3" y1="20" x2="21" y2="20"/><line class="cls-1" x1="21" y1="20" x2="23" y2="22"/></g></svg>
